<?xml version="1.0" standalone="no"?>
<!DOCTYPE svg PUBLIC "-//W3C//DTD SVG 20010904//EN"
 "http://www.w3.org/TR/2001/REC-SVG-20010904/DTD/svg10.dtd">
<svg version="1.0" xmlns="http://www.w3.org/2000/svg"
 width="500.000000pt" height="500.000000pt" viewBox="0 0 500.000000 500.000000"
 preserveAspectRatio="xMidYMid meet">

<g transform="translate(0.000000,500.000000) scale(0.100000,-0.100000)"
fill="#000000" stroke="none">
<path d="M3106 2895 c-224 -86 -243 -372 -31 -480 51 -26 69 -30 134 -29 76 1
151 23 151 45 0 5 -9 28 -21 50 -15 31 -24 39 -37 34 -124 -51 -252 14 -252
129 0 47 32 107 70 129 43 26 108 31 158 14 l43 -15 24 47 24 48 -37 18 c-50
24 -174 30 -226 10z"/>
<path d="M2095 2654 c-55 -136 -102 -251 -104 -256 -1 -5 25 -8 59 -6 l62 3
18 45 18 45 100 3 101 3 18 -51 18 -50 62 0 61 0 -101 253 -102 252 -55 3 -56
3 -99 -247z m184 18 c31 -78 29 -82 -28 -82 -28 0 -52 3 -54 8 -7 11 47 142
55 134 3 -4 16 -31 27 -60z"/>
<path d="M2530 2646 l0 -256 111 0 c62 0 129 5 150 11 57 18 91 58 97 117 5
62 -16 105 -64 130 -35 18 -35 18 -14 37 50 45 43 147 -13 189 -24 18 -45 21
-148 24 l-119 4 0 -256z m188 152 c32 -32 -2 -98 -50 -98 -15 0 -18 9 -18 55
0 54 1 55 28 55 15 0 33 -5 40 -12z m30 -214 c14 -10 22 -26 22 -44 0 -37 -32
-60 -82 -60 l-38 0 0 60 0 60 38 0 c21 0 48 -7 60 -16z"/>
<path d="M1130 2135 l0 -365 363 2 362 3 3 363 2 362 -365 0 -365 0 0 -365z
m440 145 l0 -70 70 0 70 0 0 -75 0 -75 -70 0 -70 0 0 -70 0 -70 -75 0 -75 0 0
70 0 70 -70 0 -70 0 0 75 0 75 70 0 70 0 0 70 0 70 75 0 75 0 0 -70z"/>
<path d="M2030 2090 l0 -150 30 0 30 0 0 60 0 60 50 0 50 0 0 -60 0 -60 35 0
36 0 -3 148 -3 147 -32 3 -33 3 0 -60 0 -61 -50 0 -50 0 0 60 0 60 -30 0 -30
0 0 -150z"/>
<path d="M2317 2233 c-4 -3 -7 -71 -7 -150 l0 -143 85 0 85 0 0 30 c0 29 -1
30 -50 30 -49 0 -50 1 -50 30 0 29 1 30 50 30 49 0 50 1 50 30 0 29 -1 30 -50
30 -49 0 -50 1 -50 30 0 29 1 30 50 30 49 0 50 1 50 30 l0 30 -78 0 c-43 0
-82 -3 -85 -7z"/>
<path d="M2563 2090 l-61 -150 37 0 c32 0 38 4 48 30 11 28 14 30 66 30 51 0
55 -2 67 -30 10 -25 18 -30 46 -30 19 0 34 3 34 8 0 4 -27 70 -58 147 -55 133
-59 140 -88 143 -29 3 -30 2 -91 -148z m114 -26 c-3 -3 -16 -4 -30 -2 -25 3
-25 3 -9 42 l15 39 15 -37 c8 -20 12 -39 9 -42z"/>
<path d="M2830 2091 l0 -151 85 0 85 0 0 30 c0 29 -1 30 -50 30 l-49 0 -3 118
-3 117 -32 3 -33 3 0 -150z"/>
<path d="M3030 2210 c0 -28 3 -30 35 -30 l35 0 0 -120 0 -120 35 0 35 0 0 120
0 120 36 0 c33 0 35 2 32 28 l-3 27 -102 3 -103 3 0 -31z"/>
<path d="M3277 2233 c-4 -3 -7 -71 -7 -150 l0 -143 35 0 35 0 0 60 0 60 45 0
45 0 0 -60 0 -60 35 0 35 0 0 151 0 150 -32 -3 c-33 -3 -33 -4 -36 -60 l-3
-58 -44 0 -45 0 0 60 c0 59 0 60 -28 60 -16 0 -32 -3 -35 -7z"/>
<path d="M3627 2217 c-53 -32 -77 -72 -77 -127 0 -101 87 -168 193 -149 51 9
61 20 46 52 -10 22 -15 24 -36 16 -43 -16 -73 -10 -104 20 -61 62 -22 142 71
143 3 1 17 -2 31 -6 21 -5 28 -1 38 21 16 36 3 46 -66 50 -48 3 -65 0 -96 -20z"/>
<path d="M3873 2090 l-61 -150 37 0 c32 0 38 4 48 30 11 28 14 30 66 30 51 0
55 -2 67 -30 10 -25 18 -30 46 -30 19 0 34 3 34 8 -1 4 -27 70 -58 147 -55
132 -60 140 -88 143 -29 3 -30 1 -91 -148z m117 -17 c0 -8 -12 -13 -30 -13
l-30 0 15 36 c8 20 15 39 16 43 1 10 28 -53 29 -66z"/>
<path d="M4140 2091 l0 -151 35 0 35 0 0 56 0 57 43 -56 c40 -53 45 -56 85
-57 l44 0 -34 41 c-63 78 -62 74 -34 103 34 33 35 85 3 122 -21 24 -32 27
-100 32 l-77 5 0 -152z m126 63 c7 -28 0 -38 -33 -49 -21 -6 -23 -3 -23 34 0
37 2 41 25 41 18 0 26 -7 31 -26z"/>
<path d="M4410 2090 l0 -150 85 0 85 0 0 30 c0 29 -1 30 -50 30 -49 0 -50 1
-50 30 0 29 2 30 45 30 43 0 45 1 45 30 0 29 -2 30 -45 30 -43 0 -45 1 -45 30
0 29 1 30 50 30 49 0 50 1 50 30 l0 30 -85 0 -85 0 0 -150z"/>
</g>
</svg>
